<svg width="25" height="25" viewBox="0 0 25 25" fill="none" xmlns="http://www.w3.org/2000/svg">
<g clip-path="url(#clip0_1_528)">
<path d="M24 12.3333C24 18.9604 18.627 24.3333 12 24.3333C5.37295 24.3333 0 18.9604 0 12.3333C0 5.7063 5.37295 0.333344 12 0.333344C18.6284 0.333344 24 5.7063 24 12.3333Z" fill="#2081E2"/>
<path d="M5.92034 12.7366L5.97211 12.6552L9.09379 7.77171C9.13942 7.70021 9.24667 7.7076 9.28118 7.78527C9.8027 8.95404 10.2527 10.4076 10.0419 11.3126C9.95189 11.6849 9.70531 12.1891 9.4279 12.6552C9.39216 12.723 9.3527 12.7896 9.31078 12.8537C9.29105 12.8833 9.25776 12.9005 9.222 12.9005H6.01157C5.92526 12.9005 5.87472 12.8068 5.92034 12.7366Z" fill="white"/>
<path d="M19.8347 13.644V14.417C19.8347 14.4614 19.8076 14.5008 19.7681 14.5181C19.5265 14.6217 18.6992 15.0014 18.3552 15.4797C17.4774 16.7015 16.8067 18.4485 15.3075 18.4485H9.05308C6.83637 18.4485 5.04004 16.6461 5.04004 14.4219V14.3504C5.04004 14.2912 5.08811 14.2432 5.14729 14.2432H8.63392C8.70294 14.2432 8.75349 14.3073 8.74734 14.3751C8.72267 14.6019 8.7646 14.8337 8.87186 15.0445C9.07898 15.465 9.50802 15.7276 9.97158 15.7276H11.6976V14.38H9.99131C9.90378 14.38 9.85202 14.2789 9.90256 14.2074C9.92104 14.179 9.94202 14.1495 9.96419 14.1162C10.1257 13.8869 10.3563 13.5306 10.5856 13.1249C10.7422 12.8512 10.8938 12.559 11.0158 12.2656C11.0405 12.2126 11.0602 12.1583 11.08 12.1053C11.1132 12.0116 11.1478 11.9241 11.1724 11.8366C11.1971 11.7626 11.2168 11.6849 11.2365 11.6122C11.2945 11.3631 11.3191 11.0993 11.3191 10.8256C11.3191 10.7183 11.3142 10.6061 11.3044 10.4989C11.2994 10.3818 11.2846 10.2646 11.2698 10.1475C11.26 10.0439 11.2415 9.9416 11.2217 9.83435C11.1971 9.67777 11.1626 9.52244 11.1231 9.36584L11.1095 9.30668C11.08 9.1994 11.0553 9.09709 11.0208 8.98983C10.9234 8.65323 10.8112 8.3253 10.6928 8.01831C10.6497 7.89625 10.6004 7.77913 10.551 7.66201C10.4783 7.48571 10.4043 7.32543 10.3365 7.17378C10.302 7.10473 10.2724 7.04185 10.2428 6.97775C10.2095 6.905 10.175 6.83226 10.1405 6.76323C10.1158 6.71022 10.0875 6.6609 10.0678 6.61158L9.85694 6.22199C9.82734 6.16897 9.87666 6.10609 9.9346 6.12212L11.2538 6.47965H11.2575C11.26 6.47965 11.2612 6.4809 11.2624 6.4809L11.4363 6.52897L11.6274 6.58323L11.6976 6.60294V5.81883C11.6976 5.44033 12.0009 5.13335 12.3757 5.13335C12.5631 5.13335 12.7333 5.20979 12.8553 5.3343C12.9774 5.45883 13.0538 5.62897 13.0538 5.81883V6.98269L13.1944 7.02212C13.2055 7.02584 13.2166 7.03076 13.2264 7.03815C13.261 7.06405 13.3102 7.10226 13.3731 7.14913C13.4224 7.18856 13.4755 7.23666 13.5396 7.28598C13.6666 7.38829 13.8182 7.52022 13.9846 7.67187C14.029 7.71008 14.0722 7.74954 14.1116 7.78899C14.3262 7.98872 14.5666 8.22296 14.7959 8.48187C14.86 8.55462 14.9229 8.62859 14.987 8.70625C15.0511 8.78516 15.1189 8.86283 15.1781 8.94051C15.2558 9.04407 15.3396 9.15133 15.4123 9.26353C15.4468 9.31655 15.4863 9.37079 15.5196 9.4238C15.6133 9.56557 15.6959 9.71231 15.7748 9.85902C15.8081 9.92682 15.8426 10.0008 15.8722 10.0735C15.9597 10.2696 16.0288 10.4693 16.0732 10.669C16.0867 10.7122 16.0966 10.759 16.1015 10.8009V10.8108C16.1163 10.87 16.1212 10.9329 16.1262 10.997C16.1459 11.2016 16.136 11.4063 16.0917 11.6122C16.0732 11.6997 16.0485 11.7823 16.0189 11.8699C15.9893 11.9537 15.9597 12.0412 15.9215 12.1238C15.8476 12.2952 15.76 12.4666 15.6564 12.6268C15.6232 12.686 15.5837 12.7489 15.5442 12.8081C15.5011 12.8709 15.4567 12.9301 15.4173 12.9881C15.363 13.0621 15.3051 13.1397 15.2459 13.2088C15.1929 13.2815 15.1386 13.3543 15.0795 13.4184C14.9968 13.5158 14.9179 13.6082 14.8353 13.697C14.786 13.7549 14.733 13.8141 14.6788 13.8671C14.6258 13.9263 14.5715 13.9793 14.5222 14.0286C14.4396 14.1112 14.3705 14.1753 14.3126 14.2284L14.177 14.3529C14.1573 14.3702 14.1314 14.38 14.1042 14.38H13.0538V15.7276H14.3755C14.6714 15.7276 14.9525 15.6228 15.1793 15.4304C15.257 15.3626 15.596 15.0692 15.9967 14.6266C16.0103 14.6118 16.0276 14.6007 16.0473 14.5958L19.6978 13.5404C19.7657 13.5207 19.8347 13.5725 19.8347 13.644Z" fill="white"/>
</g>
<defs>
<clipPath id="clip0_1_528">
<rect width="24" height="24" fill="white" transform="translate(0 0.333344)"/>
</clipPath>
</defs>
</svg>
